<?xml version="1.0" encoding="iso-8859-1"?>
<!-- Generator: Adobe Illustrator 18.0.0, SVG Export Plug-In . SVG Version: 6.00 Build 0)  -->
<!DOCTYPE svg PUBLIC "-//W3C//DTD SVG 1.1//EN" "http://www.w3.org/Graphics/SVG/1.1/DTD/svg11.dtd">
<svg xmlns="http://www.w3.org/2000/svg" xmlns:xlink="http://www.w3.org/1999/xlink" version="1.1" id="Capa_1" x="0px" y="0px" viewBox="0 0 303.969 303.969" style="enable-background:new 0 0 303.969 303.969;" xml:space="preserve" width="512px" height="512px">
<path d="M201.604,0H57.038c-8.313,0-15.054,6.74-15.054,15.053v273.862c0,8.313,6.74,15.053,15.054,15.053h189.893  c8.314,0,15.054-6.74,15.054-15.053V60.381L201.604,0z M135.883,192.744c-7.151,5.609-15.604,8.574-24.445,8.574  c-23.057,0-41.814-20.404-41.814-45.484s18.758-45.484,41.814-45.484c8.842,0,17.295,2.965,24.447,8.576  c4.72,3.703,5.545,10.53,1.842,15.25c-3.702,4.718-10.53,5.545-15.25,1.842c-3.289-2.581-7.107-3.944-11.039-3.944  c-11.078,0-20.092,10.659-20.092,23.76s9.014,23.76,20.092,23.76c3.932,0,7.75-1.364,11.04-3.944  c4.722-3.702,11.55-2.876,15.25,1.844C141.43,182.214,140.604,189.042,135.883,192.744z M171.346,163.98l-8.025,0v8.024  c0,4.499-3.647,8.146-8.146,8.146c-4.499,0-8.146-3.647-8.146-8.146v-8.023l-8.023,0.001c-4.5,0-8.147-3.647-8.147-8.146  c0-4.499,3.646-8.146,8.146-8.147l8.023-0.001v-8.023c0-4.499,3.647-8.146,8.146-8.146c4.499,0,8.146,3.648,8.146,8.146v8.022  l8.025-0.001c4.5,0,8.147,3.647,8.147,8.146C179.492,160.332,175.846,163.979,171.346,163.98z M223.484,163.98l-8.024,0v8.024  c0,4.499-3.648,8.146-8.146,8.146c-4.499,0-8.148-3.647-8.148-8.146v-8.023l-8.021,0.001c-4.5,0-8.147-3.647-8.147-8.146  c0-4.499,3.647-8.146,8.147-8.147l8.021-0.001v-8.023c0-4.499,3.648-8.146,8.148-8.146c4.499,0,8.146,3.648,8.146,8.146v8.022  l8.023-0.001c4.5,0,8.148,3.647,8.148,8.146C231.631,160.332,227.984,163.979,223.484,163.98z M195.97,69.871  c-2.65,0-4.798-2.146-4.798-4.797V19.006l50.881,50.865H195.97z" fill="#071D6E"/>
<g>
</g>
<g>
</g>
<g>
</g>
<g>
</g>
<g>
</g>
<g>
</g>
<g>
</g>
<g>
</g>
<g>
</g>
<g>
</g>
<g>
</g>
<g>
</g>
<g>
</g>
<g>
</g>
<g>
</g>
</svg>
